<?xml version="1.0" standalone="no"?><!DOCTYPE svg PUBLIC "-//W3C//DTD SVG 1.1//EN" "http://www.w3.org/Graphics/SVG/1.1/DTD/svg11.dtd"><svg t="1527318542443" class="icon" style="" viewBox="0 0 1024 1024" version="1.1" xmlns="http://www.w3.org/2000/svg" p-id="3236" xmlns:xlink="http://www.w3.org/1999/xlink" width="200" height="200"><defs><style type="text/css"></style></defs><path d="M33.495327 561.445483c6.380062-9.570093 12.760125-19.140187 19.140187-25.520249l290.292835-290.292835c12.760125-12.760125 19.140187-12.760125 31.900311 0l220.11215 220.112149c15.950156 15.950156 22.330218 15.950156 38.280374 0 89.320872-92.510903 181.831776-181.831776 271.152648-271.152648 12.760125-12.760125 19.140187-12.760125 31.900311 0 19.140187 22.330218 38.280374 41.470405 57.420561 63.800623 3.190031-3.190031 6.380062-3.190031 9.570094-6.380062V19.140187c0-12.760125-3.190031-15.950156-15.950156-15.950156h-242.442368c35.090343 31.900312 60.610592 60.610592 86.130841 86.130841 12.760125 12.760125 15.950156 19.140187 0 35.090343l-200.971962 200.971963c-12.760125 12.760125-19.140187 12.760125-35.090343 0-73.370717-76.560748-149.931464-149.931464-223.302181-223.302181-12.760125-12.760125-19.140187-12.760125-31.900311 0L33.495327 408.323988s-9.570093 6.380062-9.570093 12.760124v133.981309c3.190031 3.190031 6.380062 6.380062 9.570093 6.380062zM1000.074766 433.844237c0-15.950156-6.380062-22.330218-22.330218-22.330218h-162.691588c-19.140187 0-22.330218 6.380062-22.330219 22.330218v561.445483c0 19.140187 6.380062 25.520249 25.52025 25.520249h156.311526c15.950156 0 22.330218-3.190031 22.330218-22.330218 3.190031-188.211838 3.190031-376.423676 3.190031-564.635514zM464.149533 567.825545H301.457944c-15.950156 0-22.330218 6.380062-22.330218 22.330218v411.514019c0 15.950156 3.190031 22.330218 19.140187 22.330218h165.88162c15.950156 0 19.140187-3.190031 19.140187-19.140187v-414.70405c3.190031-19.140187-3.190031-25.520249-19.140187-22.330218zM722.542056 669.906542h-159.501558c-15.950156 0-25.520249 3.190031-22.330218 22.330218v309.433022c0 15.950156 6.380062 22.330218 22.330218 22.330218h162.691589c19.140187 0 22.330218-6.380062 22.330218-22.330218v-153.121495-153.121496c-3.190031-22.330218-9.570093-28.71028-25.520249-25.520249zM228.087227 896.398754v-102.080997c0-15.950156-3.190031-22.330218-19.140187-22.330218H43.065421c-15.950156 0-19.140187 3.190031-19.140187 19.140187v210.542056c0 15.950156 6.380062 19.140187 19.140187 19.140187h165.881619c19.140187 0 19.140187-6.380062 19.140187-22.330218v-102.080997z" fill="#BFCBD9" p-id="3237"></path></svg>