<?xml version="1.0" standalone="no"?><!DOCTYPE svg PUBLIC "-//W3C//DTD SVG 1.1//EN" "http://www.w3.org/Graphics/SVG/1.1/DTD/svg11.dtd"><svg t="1527010677285" class="icon" style="" viewBox="0 0 1095 1024" version="1.1" xmlns="http://www.w3.org/2000/svg" p-id="1038" xmlns:xlink="http://www.w3.org/1999/xlink" width="213.8671875" height="200"><defs><style type="text/css"></style></defs><path d="M1090.862559 435.980562c-4.323607-23.934417-27.333583-48.021147-51.037267-53.42905l-17.761928-4.094382c-41.771748-12.583251-79.066066-40.458227-102.536-81.222591-23.705192-41.001129-29.111586-87.562474-18.844715-130.258663l0 0 5.178677-16.677633c7.179873-23.245233-2.162558-55.20856-20.772015-70.961752 0 0-16.676125-14.125996-63.932686-41.382668-47.256561-27.256672-67.716408-34.667278-67.716408-34.667278-22.933065-8.265676-55.20856-0.389079-71.809282 17.448252l-12.50634 13.353869c-31.811013 29.962131-74.590144 48.334824-121.763762 48.334824-47.333472 0-90.335796-18.526514-122.152841-48.717871l-11.964946-12.893911c-16.523811-17.837331-48.876217-25.713927-71.809282-17.44976 0 0-20.53525 7.410606-67.868722 34.668786-47.17965 27.256672-63.855775 41.305757-63.855775 41.305757-18.532547 15.753192-27.876485 47.639608-20.695104 70.961752l5.178677 16.906858c10.18996 42.620785 4.706655 89.10522-18.921626 130.029438-23.622248 40.916678-61.153332 68.868565-103.155812 81.380937l-17.219026 3.936036c-23.703683 5.407902-46.713659 29.494633-51.037267 53.42905 0 0-3.859125 21.467231-3.859125 76.057486s3.859125 75.974543 3.859125 75.974543c4.323607 23.940449 27.333583 48.028688 51.037267 53.43659l16.835979 3.857617 0 0c42.156303 12.429429 79.756757 40.458227 103.53886 81.536268 23.703683 40.999621 29.111586 87.560966 18.844715 130.258663l0 0-5.101766 16.599214c-7.181381 23.239201 2.162558 55.210068 20.770507 70.961752 0 0 16.677633 14.125996 63.934194 41.382668 47.256561 27.25818 67.7149 34.668786 67.7149 34.668786 22.933065 8.264168 55.210068 0.389079 71.809282-17.44976l11.811124-12.741597C456.942095 960.332944 499.95196 941.723486 547.360835 941.723486c47.410383 0 90.495651 18.609458 122.382066 48.876217l0.076911 0 11.734213 12.664686c16.600722 17.838839 48.877725 25.713927 71.81079 17.44976 0 0 20.53525-7.410606 67.867214-34.668786 47.256561-27.256672 63.857283-41.382668 63.857283-41.382668 18.609458-15.751684 27.951888-47.64564 20.772015-70.961752l-5.255588-17.142115c-10.037646-42.543874-4.629743-88.869962 18.998537-129.715761 23.705192-41.07804 61.382557-69.029928 103.543384-81.536268l0-0.076911 16.829947-3.863649c23.705192-5.40187 46.715167-29.496141 51.038775-53.430558 0 0 3.859125-21.465723 3.859125-76.051454C1094.721684 457.447793 1090.862559 435.980562 1090.862559 435.980562L1090.862559 435.980562zM547.360835 730.317636c-120.527153 0-218.279587-97.752434-218.279587-218.279587S426.833682 293.835372 547.360835 293.835372s218.279587 97.752434 218.279587 218.279587S667.887988 730.317636 547.360835 730.317636L547.360835 730.317636zM547.360835 730.317636" p-id="1039" fill="#C1CBD8"></path></svg>